<svg width="77" height="78" viewBox="0 0 77 78" fill="none" xmlns="http://www.w3.org/2000/svg">
<path d="M56.0199 46.2636C55.0645 45.7843 50.3648 43.4747 49.4899 43.153C48.6117 42.8345 47.9748 42.6769 47.3347 43.6355C46.701 44.5909 44.8674 46.7429 44.3109 47.3798C43.7544 48.02 43.1947 48.0972 42.2393 47.6211C41.2839 47.1386 38.2023 46.1317 34.5512 42.8764C31.7108 40.3415 29.7904 37.2116 29.2339 36.253C28.6774 35.2977 29.176 34.7798 29.6521 34.3037C30.0832 33.8759 30.6107 33.1875 31.0868 32.631C31.5661 32.0713 31.7237 31.6724 32.0454 31.0322C32.3638 30.3953 32.2062 29.8388 31.965 29.3595C31.7237 28.8802 29.813 24.1741 29.0184 22.2601C28.24 20.3976 27.4518 20.6517 26.8664 20.6196C26.2555 20.5952 25.6442 20.5845 25.0328 20.5874C24.3959 20.5874 23.3601 20.8255 22.4852 21.784C21.6102 22.7394 19.1397 25.0523 19.1397 29.7584C19.1397 34.4613 22.5656 39.0066 23.0417 39.6467C23.521 40.2836 29.784 49.9404 39.3732 54.0803C41.6539 55.0647 43.4327 55.6533 44.8224 56.0908C47.1127 56.821 49.1972 56.7181 50.8409 56.4704C52.6777 56.197 56.496 54.1575 57.2938 51.9251C58.0915 49.6927 58.0915 47.7787 57.8503 47.3798C57.6122 46.9809 56.9785 46.7429 56.0199 46.2636ZM38.5786 70.0773H38.5658C32.8713 70.0778 27.2816 68.5467 22.3822 65.6446L21.221 64.9562L9.18707 68.1151L12.3974 56.3803L11.6415 55.1773C8.45828 50.1085 6.77431 44.2425 6.78415 38.2571C6.78737 20.7257 21.0537 6.46261 38.5915 6.46261C47.0837 6.46261 55.0678 9.77587 61.0702 15.7848C64.0318 18.7333 66.3792 22.2399 67.9766 26.1017C69.574 29.9635 70.3897 34.1037 70.3763 38.2828C70.3667 55.8142 56.1035 70.0773 38.5786 70.0773ZM65.6412 11.2202C62.097 7.65256 57.8799 4.82379 53.2345 2.89779C48.589 0.971799 43.6075 -0.0131123 38.5786 0.000131815C17.4928 0.000131815 0.331327 17.1616 0.321676 38.2539C0.321676 44.9962 2.08124 51.5777 5.42989 57.3775L0 77.2024L20.2817 71.8819C25.8904 74.9376 32.1755 76.539 38.5625 76.5398H38.5786C59.6613 76.5398 76.8259 59.3783 76.8356 38.2828C76.8511 33.2559 75.8698 28.2758 73.9483 23.6306C72.0268 18.9854 69.2034 14.7672 65.6412 11.2202Z" fill="black"></path>
</svg>
